<?xml version="1.0" encoding="utf-8"?>
<!-- Generator: Adobe Illustrator 17.0.0, SVG Export Plug-In . SVG Version: 6.00 Build 0)  -->
<!DOCTYPE svg PUBLIC "-//W3C//DTD SVG 1.1//EN" "http://www.w3.org/Graphics/SVG/1.1/DTD/svg11.dtd">
<svg version="1.1" id="Camada_1" xmlns="http://www.w3.org/2000/svg" xmlns:xlink="http://www.w3.org/1999/xlink" x="0px" y="0px"
	 width="300px" height="80px" viewBox="0 0 300 80" enable-background="new 0 0 300 80" xml:space="preserve">
<g>
	<path fill="#F6F6F6" d="M25.921,65.71c0.442-0.453,0.732-1.104,1.488-1.152c2.768,1.811,5.838,2.866,9.079,3.297
		c6.131,0.816,12.032-0.175,17.528-2.989c8.559-4.383,13.195-11.543,14.236-21.033c0.526-4.799-0.36-9.434-2.192-13.878
		c-2.708-6.567-7.439-11.26-13.676-14.503c-0.975-0.507-1.937-1.121-3.102-1.147c-0.739-0.245-1.457-0.572-2.254-0.59
		c-0.341-0.008-0.535-0.197-0.659-0.497c-0.649-1.581,0.651-3.952,2.326-4.217c0.886-0.14,1.786,0.145,2.504,0.478
		c2.628,1.219,5.285,2.393,7.595,4.236c1.559,1.243,3.329,2.25,4.649,3.76c1.815,2.075,3.538,4.22,4.956,6.616
		c1.388,2.346,2.537,4.776,3.331,7.37c0.832,2.719,1.374,5.493,1.288,8.359c-0.001,1.112-0.002,2.224-0.003,3.336
		c-0.118,3.164-0.574,6.234-1.862,9.189c-0.574,1.317-1.009,2.707-1.67,3.995c-0.969,1.889-2.14,3.643-3.461,5.308
		c-0.465,0.586-0.888,1.204-1.427,1.729c-0.304,0.083-0.452,0.28-0.439,0.595c0,0,0.001-0.003,0.001-0.003
		c-0.067,0.067-0.133,0.133-0.2,0.2c0,0,0.003-0.003,0.003-0.003c-0.067,0.066-0.133,0.133-0.199,0.199c0,0,0.002-0.002,0.002-0.002
		c-0.066,0.066-0.132,0.132-0.199,0.199c0,0,0.001-0.002,0.001-0.002c-0.066,0.066-0.133,0.133-0.199,0.199
		c0,0,0.002-0.002,0.002-0.002c-0.066,0.066-0.133,0.133-0.199,0.199c0,0,0.002-0.002,0.002-0.002c-0.067,0.067-0.133,0.133-0.2,0.2
		c0,0,0.003-0.004,0.003-0.004c-0.067,0.067-0.134,0.134-0.201,0.201c0,0,0.005-0.005,0.005-0.005
		c-0.068,0.068-0.135,0.135-0.203,0.203c0,0,0.007-0.005,0.007-0.005c-0.095,0.042-0.382-0.099-0.198,0.208
		c-1.985,1.808-4.035,3.522-6.459,4.737c-1.377,0.69-2.661,1.567-4.147,2.035c-0.336,0.106-0.674,0.206-1.011,0.309
		c-0.169,0.004-0.326,0.03-0.41,0.204c0,0,0.008-0.005,0.008-0.005c-0.222,0.001-0.459-0.042-0.6,0.202c0,0,0.009-0.005,0.009-0.005
		c-0.445-0.006-0.898-0.037-1.182,0.414c-0.985,0.605-2.134,0.521-3.207,0.753c-2.422,0.525-4.881,0.686-7.356,0.603
		c-1.749-0.058-3.47-0.344-5.195-0.614c-3.163-0.495-6.057-1.765-8.931-3.081c-0.722-0.33-1.32-0.921-2.113-1.148
		c-0.204-0.058-0.406-0.251-0.197-0.424c0.616-0.51,0.864-1.414,1.747-1.632c3.13,2.095,6.545,3.488,10.238,4.239
		c2.15,0.437,4.339,0.397,6.502,0.667c0.409,0.051,0.941-0.126,0.962-0.635c0.024-0.57-0.45-0.737-0.962-0.719
		c-1.113,0.039-2.199-0.258-3.32-0.223c-0.676,0.021-1.508,0.004-1.418-1.105c0.02-0.247-0.213-0.382-0.461-0.433
		c-2.444-0.506-4.715-1.536-7.023-2.426C27.093,67.172,26.29,66.602,25.921,65.71z"/>
	<path fill="#D8D8D8" d="M5.452,45.662c-0.055-0.119-0.148-0.235-0.158-0.358c-0.285-3.528-0.558-7.078,0.302-10.546
		c0.487-1.965,0.868-3.972,1.626-5.87c1.836-4.597,4.297-8.773,7.831-12.309c2.528-2.53,5.228-4.803,8.319-6.61
		c2.806-1.641,5.776-2.886,8.883-3.825c1.603-0.484,3.216-0.879,4.902-0.887c0.13,0.286,0.502,0.078,0.683,0.354
		c-0.775,0.696-0.943,1.943-2.106,2.296c-1.076,0.326-1.979,0.954-2.938,1.518c-2.178,1.28-3.93,3.021-5.472,4.934
		c-2.267,2.811-3.629,6.037-4.265,9.656c-0.565,3.218-0.909,6.435-0.617,9.652c0.285,3.138,1.051,6.224,2.103,9.217
		c-0.287,0.003-0.483,0.138-0.591,0.403c-0.39-0.812-0.793-1.619-1.164-2.44c-0.16-0.354-0.226-0.856-0.757-0.669
		c-0.549,0.194-0.36,0.661-0.237,1.075c0.313,1.056,0.646,2.108,0.786,3.207c-0.682,0.15,0.047,0.941-0.533,1.158
		c-0.388,0.145-0.528,0.43-0.353,0.847c0.111,0.263-0.086,0.328-0.295,0.359c-0.34-0.951-0.781-1.864-0.984-2.865
		c-0.285-1.407-0.479-2.824-0.592-4.253c-0.027-0.345-0.05-0.708-0.483-0.721c-0.434-0.012-0.505,0.337-0.507,0.691
		c-0.002,0.23-0.016,0.461,0.001,0.689c0.167,2.243,0.517,4.46,0.983,6.659c-0.569,0.177-0.581,1.134-1.382,0.988
		c-0.67-0.016-0.99,0.32-0.987,0.981c-0.385-0.008-0.729,0.083-0.982,0.399c-0.373-1.128-0.871-2.208-1.023-3.417
		c-0.082-0.65-0.11-1.297-0.178-1.943c-0.039-0.373-0.129-0.905-0.615-0.849c-0.456,0.052-0.398,0.6-0.474,0.968
		c-0.017,0.084,0.078,0.186,0.075,0.279c-0.046,1.801,0.401,3.56,0.456,5.353c-0.904-0.283-0.577,0.927-1.198,0.988
		c-0.328-0.939-0.659-1.878-0.984-2.819c-0.103-0.299-0.121-0.741-0.547-0.679c-0.468,0.068-0.498,0.459-0.491,0.903
		c0.017,1.02,0.318,1.988,0.445,2.985c-0.804-0.297-1.023,0.571-1.569,0.787c-0.206-0.644-0.411-1.289-0.619-1.933
		c-0.958-2.966-1.036-6.026-0.969-9.102c0.009-0.421,0.068-0.936-0.55-0.959c-0.694-0.026-0.623,0.525-0.626,0.982
		c-0.009,1.441-0.012,2.882-0.017,4.323c-0.677,0.226-1.566,0.163-1.645,1.215c-0.004,0.06-0.206,0.105-0.316,0.158
		c0,0,0.005,0.002,0.005,0.002C5.578,46.308,5.763,45.94,5.452,45.662z M16.257,20.176c0.349-0.081,0.538-0.37,0.754-0.604
		c2.618-2.832,5.568-5.245,8.912-7.18c0.445-0.258,1.367-0.471,0.884-1.221c-0.361-0.561-1.041-0.024-1.488,0.212
		c-3.298,1.738-6.039,4.217-8.779,6.695c-0.379,0.342-0.592,0.785-0.779,1.236C15.569,19.775,15.78,20.064,16.257,20.176z
		 M10.57,41.303c-0.113,0.708,0.163,1.433,0.229,2.179c0.023,0.261,0.095,0.711,0.569,0.643c0.37-0.053,0.478-0.419,0.438-0.678
		c-0.146-0.954,0.174-1.902,0.084-2.814c-0.188-1.918,0.346-3.734,0.553-5.591c0.132-1.188,0.549-2.342,0.814-3.517
		c0.068-0.299,0.203-0.685-0.242-0.831c-0.417-0.136-0.687,0.076-0.838,0.464c-0.071,0.182-0.163,0.358-0.218,0.545
		C11.054,34.822,10.745,38.026,10.57,41.303z M14.906,38.699c0.017,0.269-0.133,0.932,0.595,0.997
		c0.696,0.062,0.574-0.596,0.612-1.009c0.264-2.881,0.516-5.761,1.505-8.516c0.118-0.329,0.072-0.747-0.411-0.854
		c-0.508-0.113-0.725,0.235-0.847,0.624C15.489,32.715,15.021,35.562,14.906,38.699z M21.799,25.336
		c-0.032-0.39,0.037-0.701-0.337-0.751c-0.426-0.057-0.691,0.188-0.825,0.553c-0.814,2.219-1.16,4.537-1.403,6.873
		c-0.044,0.425,0.049,0.814,0.599,0.811c0.489-0.002,0.539-0.355,0.584-0.743c0.214-1.843,0.491-3.676,0.995-5.467
		C21.543,26.144,21.694,25.68,21.799,25.336z M7.624,35.964c-0.027,0.384,0.027,0.75,0.503,0.794
		c0.457,0.042,0.58-0.252,0.657-0.665c0.369-1.975,0.564-3.988,1.289-5.886c0.145-0.38,0.209-0.802-0.284-0.994
		c-0.528-0.207-0.711,0.234-0.838,0.583C8.221,31.787,7.785,33.847,7.624,35.964z M17.77,25.924
		c0.396,0.007,0.574-0.168,0.687-0.426c0.828-1.883,1.788-3.693,2.971-5.382c0.221-0.315,0.288-0.703-0.087-0.957
		c-0.419-0.284-0.676,0.088-0.893,0.35c-1.367,1.652-2.217,3.602-3.109,5.522C17.124,25.495,17.279,25.867,17.77,25.924z
		 M11.555,27.373c-0.06,1.04,0.347,1.02,0.914,0.766c0.301-0.134,0.387-0.425,0.571-0.646c0.413-0.496,0.516-1.14,0.985-1.644
		c0.769-0.827,1.35-1.83,1.999-2.766c0.227-0.328,0.291-0.651-0.101-0.935c-0.414-0.3-0.662-0.03-0.923,0.232
		c-0.046,0.047-0.094,0.093-0.134,0.144c-1.14,1.423-1.985,3.058-3.195,4.433C11.539,27.107,11.552,27.384,11.555,27.373z
		 M16.457,42.588c0.066,0.329,0.159,0.674,0.198,1.025c0.036,0.324,0.178,0.476,0.501,0.438c0.305-0.035,0.49-0.225,0.473-0.518
		c-0.021-0.352-0.124-0.698-0.17-1.049c-0.047-0.356-0.216-0.702-0.561-0.683C16.512,41.822,16.513,42.248,16.457,42.588z
		 M21.734,36.97c-0.073-0.324-0.311-0.403-0.589-0.384c-0.237,0.016-0.486,0.088-0.406,0.402c0.062,0.245,0.162,0.548,0.493,0.506
		C21.5,37.46,21.673,37.248,21.734,36.97z M23.768,17.214c0.307-0.074,0.467-0.327,0.444-0.569c-0.024-0.257-0.317-0.42-0.563-0.432
		c-0.222-0.011-0.276,0.234-0.279,0.435C23.365,16.931,23.453,17.157,23.768,17.214z M15.649,27.489
		c0.007-0.27-0.128-0.385-0.355-0.338c-0.211,0.044-0.462,0.102-0.514,0.35c-0.047,0.226,0.135,0.345,0.336,0.373
		C15.416,27.915,15.591,27.759,15.649,27.489z M17.984,37.544c0.205-0.041,0.41-0.136,0.372-0.367
		c-0.042-0.257-0.298-0.333-0.526-0.339c-0.176-0.005-0.313,0.136-0.312,0.313C17.52,37.436,17.725,37.53,17.984,37.544z"/>
	<path fill="#F2F1F1" d="M11.931,51.16c-0.127-0.997-0.428-1.965-0.445-2.985c-0.007-0.444,0.024-0.835,0.491-0.903
		c0.426-0.062,0.443,0.38,0.547,0.679c0.325,0.941,0.656,1.879,0.984,2.819c0.157,1.148,0.671,2.183,1.059,3.256
		c0.128,0.352,0.296,0.858,0.813,0.593c0.425-0.218,1.101-0.432,0.836-1.129c-0.472-1.247-0.85-2.536-1.511-3.707
		c-0.056-1.792-0.503-3.551-0.456-5.353c0.002-0.093-0.093-0.195-0.075-0.279c0.077-0.368,0.018-0.916,0.474-0.968
		c0.486-0.056,0.576,0.477,0.615,0.849c0.068,0.646,0.096,1.294,0.178,1.943c0.153,1.209,0.65,2.289,1.023,3.417
		c-0.007,0.91,0.506,1.661,0.775,2.486c0.096,0.293,0.191,0.803,0.705,0.572c0.406-0.182,0.379-0.626,0.234-0.944
		c-0.367-0.807-0.477-1.68-0.732-2.513c-0.003-0.661,0.317-0.997,0.987-0.981c0.426,0.518,0.62,1.139,0.818,1.766
		c0.327,1.037,0.538,1.074,1.306,0.311c0.22-0.218,0.256-0.426,0.148-0.704c-0.304-0.784-0.595-1.574-0.891-2.361
		c-0.466-2.199-0.816-4.416-0.983-6.659c-0.017-0.228-0.003-0.459-0.001-0.689c0.002-0.354,0.073-0.703,0.507-0.691
		c0.433,0.012,0.456,0.375,0.483,0.721c0.113,1.429,0.307,2.847,0.592,4.253c0.203,1.002,0.644,1.915,0.984,2.865
		c0.101,0.272,0.146,0.588,0.318,0.804c0.22,0.277,0.092,1.012,0.742,0.759c0.92-0.358,1.374-1.132,1.116-1.721
		c-0.323-0.738-0.663-1.47-0.995-2.205c-0.139-1.099-0.473-2.151-0.786-3.207c-0.123-0.414-0.312-0.882,0.237-1.075
		c0.532-0.187,0.597,0.315,0.757,0.669c0.371,0.821,0.774,1.627,1.164,2.44c-0.071,0.848,0.494,1.464,0.808,2.169
		c0.097,0.219,0.143,0.681,0.579,0.435c0.349-0.197,0.468-0.51,0.252-0.916c-0.365-0.689-0.701-1.393-1.049-2.091
		c-1.052-2.992-1.818-6.078-2.103-9.217c-0.292-3.217,0.052-6.434,0.617-9.652c0.636-3.619,1.998-6.845,4.265-9.656
		c1.543-1.914,3.294-3.654,5.472-4.934c0.959-0.564,1.862-1.191,2.938-1.518c1.163-0.353,1.331-1.6,2.106-2.296
		c-0.18-0.276-0.553-0.068-0.683-0.354c1.45-0.538,3.312-0.19,4.167,0.692c1.198,1.235,0.614,3.206-0.529,3.907
		c-1.207,0.74-1.268,2.497-0.168,3.431c1.112,0.944,1.268,2.712,0.116,3.599c-1.213,0.934-0.79,2.109-0.773,3.215
		c0.008,0.536,0.815,0.478,1.118,0.841c0.453,0.543,0.749,0.21,1.117-0.082c0.664-0.528,1.355-1.023,2.028-1.54
		c0.269-0.207,0.414-0.431,0.349-0.836c-0.161-1.009,0.361-1.9,1.251-2.302c1.015-0.459,2.059-0.239,2.743,0.577
		c0.631,0.753,0.705,1.879,0.181,2.736c-0.503,0.821-1.54,1.217-2.55,0.945c-0.368-0.099-0.686-0.128-1.008,0.136
		c-0.93,0.764-1.875,1.509-2.897,2.329c1.083,0.703,2.067,1.468,3.166,1.993c0.425,0.204,1.083-0.206,1.686-0.163
		c1.376,0.098,2.429,1.042,2.399,2.281c-0.029,1.204-1.404,2.48-2.657,2.465c-1.203-0.014-2.227-1.069-2.235-2.388
		c-0.004-0.61-0.223-0.987-0.764-1.236c-0.295-0.136-0.59-0.304-0.83-0.519c-0.757-0.678-1.353-0.629-2.05,0.166
		c-0.803,0.916-1.879,0.928-2.963,0.483c-1.104-0.453-1.423-1.076-1.5-2.371c-0.088-1.47,0.179-2.671,1.758-3.187
		c0.383-0.986,0.334-1.975,0.022-2.966c-1.084-0.363-1.535-1.037-1.542-2.3c-0.006-1.277,0.389-1.846,1.547-2.228
		c0.315-0.92,0.333-1.84-0.005-2.758c-0.116-0.06-0.238-0.113-0.349-0.182c-1.461-0.923-1.515-0.952-2.95,0.088
		c-3.834,2.777-6.654,6.344-8.309,10.804c-0.938,2.529-1.365,5.147-1.609,7.828c-0.49,5.393,0.701,10.43,2.955,15.274
		c0.32,0.687,0.367,1.153-0.318,1.76c-3.255,2.885-6.429,5.861-9.643,8.792c-1.956,1.784-3.941,3.538-5.896,5.324
		c-0.556,0.508-0.956,0.516-1.264-0.218c0.046-0.261-0.306-0.55-0.088-0.737c0.726-0.62,0.206-1.147-0.049-1.714
		c-0.294-0.652-0.553-1.32-0.847-1.973c-0.787-1.751-1.139-3.643-1.771-5.444c-0.002-0.619-0.15-1.206-0.393-1.772
		c-0.073-0.915-0.146-1.831-0.219-2.746c0.005-1.441,0.008-2.882,0.017-4.323c0.003-0.457-0.068-1.008,0.626-0.982
		c0.618,0.023,0.559,0.538,0.55,0.959c-0.067,3.076,0.011,6.135,0.969,9.102c0.208,0.644,0.412,1.289,0.619,1.933
		c0.517,1.412,0.967,2.849,1.681,4.183c0.2,0.375,0.22,1.072,0.842,0.797c0.515-0.228,1.049-0.599,0.645-1.453
		C12.876,54.088,12.322,52.65,11.931,51.16z"/>
	<path fill="#A1A0A0" d="M49.283,14.306c1.165,0.026,2.127,0.64,3.102,1.147c6.237,3.243,10.967,7.937,13.676,14.503
		c1.833,4.444,2.719,9.078,2.192,13.878c-1.041,9.49-5.677,16.65-14.236,21.033c-5.496,2.814-11.396,3.805-17.528,2.989
		c-3.241-0.431-6.312-1.486-9.079-3.297c0.367-0.59,0.831-1.079,1.45-1.409c0.741,0.346,1.477,0.703,2.225,1.034
		c1.826,0.808,3.675,1.549,5.69,1.744c0.725,1.048,1.567,1.895,2.997,1.591c1.261-0.268,1.806-1.184,2.046-2.354
		c0.005-0.025,0.049-0.041,0.075-0.062c2.37,0.016,4.665-0.425,6.913-1.146c2.087-0.669,4.015-1.676,5.909-2.763
		c0.646-0.371,0.941-0.756,0.483-1.479c-0.187-0.295-0.254-0.669-0.359-1.012c-0.145-0.474-0.148-0.902,0.385-1.166
		c0.542-0.268,0.944-0.095,1.278,0.354c0.058,0.079,0.118,0.158,0.165,0.243c0.655,1.201,0.682,1.231,1.691,0.274
		c1.545-1.466,2.937-3.07,4.02-4.916c0.256-0.436,0.544-0.725,1.05-0.93c2.221-0.898,2.799-2.961,1.416-4.906
		c-0.262-0.368-0.258-0.708-0.138-1.107c1.308-4.329,1.005-8.654-0.212-12.924c-0.559-1.962-1.342-3.867-2.498-5.589
		c-0.327-0.487-0.66-0.652-1.208-0.384c-0.557,0.272-1.151,0.258-1.463-0.324c-0.307-0.572-0.191-1.19,0.444-1.514
		c0.495-0.252,0.359-0.618,0.161-0.862c-1.928-2.378-4.079-4.506-6.857-5.902c-0.653-0.328-1.22-0.644-1.424-1.517
		C51.331,16.169,50.481,15.082,49.283,14.306z"/>
	<path fill="#F2F1F1" d="M38.996,37.167c1.915,0.357,3.127-1.032,4.525-1.889c0.614-0.376,0.34-1.795-0.252-2.257
		c-0.828-0.646-1.467-0.806-2.429-0.01c-1.782,1.475-4.098,0.069-4.45-2.155c-0.2-1.265,1.416-2.927,2.734-2.95
		c1.831-0.032,2.43,0.251,2.991,1.916c0.476,1.413,1.707,1.84,2.793,2.359c0.405,0.194,1.195-0.396,1.867-0.419
		c0.193-0.007,0.435-0.162,0.567-0.09c1.563,0.86,2.184-1.026,3.408-1.166c0.243-0.028,0.219-0.449,0.197-0.708
		c-0.115-1.348,0.698-2.228,1.579-3.035c0.607-0.557,2.644-0.41,3.467,0.163c2.048,1.426,2.113,3.826,0.146,5.365
		c-1.257,0.984-2.729,0.986-3.919-0.079c-0.442-0.396-0.796-0.375-1.212-0.076c-0.289,0.208-0.542,0.443-0.903,0.568
		c-0.424,0.146-0.551,0.47-0.362,0.945c0.704,1.761-0.193,3.017-1.399,4.015c-0.704,0.583-0.787,2.352-0.105,3.02
		c0.629,0.616,1.274,1.216,1.146,2.254c-0.122,0.983-0.968,2.165-1.911,2.058c-1.758-0.199-2.531,1.101-3.594,1.983
		c-0.603,0.499-1.116,1.113-1.745,1.572c-0.45,0.328-0.685,0.656-0.648,1.211c0.074,1.08-0.567,1.723-1.459,2.107
		c-0.798,0.343-2.003-0.043-2.585-0.716c-0.317-0.366-0.483-2.083-0.233-2.409c0.815-1.064,1.983-1.537,2.842-1.025
		c0.706,0.42,0.978-0.123,1.29-0.467c1.035-1.146,2.253-2.081,3.428-3.065c0.241-0.202,0.294-0.413,0.179-0.69
		c-0.448-1.073-0.143-1.987,0.731-2.647c1.047-0.79,0.482-1.817,0.449-2.718c-0.022-0.606-2.032-1.359-2.612-1.07
		c-0.637,0.318-1.259,0.673-1.86,1.057c-0.504,0.322-0.821,0.752-0.856,1.422c-0.053,1.011-1.076,1.669-2.297,1.576
		c-1.011-0.077-1.576-0.743-1.561-1.841C36.967,37.669,37.553,37.069,38.996,37.167z"/>
	<path fill="#D8D8D8" d="M27.113,30.825c-0.138-3.93,0.589-7.83,2.39-11.462c1.116-2.251,2.465-4.393,4.624-5.854
		c0.213-0.144,0.46-0.401,0.694-0.266c0.333,0.192,0.104,0.519,0.022,0.788c-0.481,1.567-0.109,2.991,0.85,4.242
		c0.556,0.725,0.433,1.207-0.107,1.876c-1.565,1.94-1.619,4.349-0.19,6.414c0.445,0.643,0.275,1.179-0.116,1.694
		c-1.371,1.802-0.87,4.763,0.55,6.201c0.38,0.385,0.336,0.768,0.019,1.128c-0.931,1.055-1.604,2.21-1.676,3.666
		c-0.023,0.456-0.467,0.704-0.783,0.972c-0.821,0.698-1.676,1.354-2.517,2.028c-0.591,0.474-1.029,0.559-1.422-0.29
		C27.832,38.464,26.975,34.815,27.113,30.825z M34.295,18.859c-0.2-0.325-0.203-0.827-0.745-0.788
		c-0.355,0.026-0.675,0.24-0.651,0.595c0.026,0.384,0.218,0.774,0.727,0.756C33.987,19.41,34.229,19.233,34.295,18.859z
		 M30.397,28.713c-0.39,0.055-0.682,0.278-0.692,0.677c-0.009,0.355,0.263,0.625,0.614,0.645c0.375,0.022,0.695-0.132,0.729-0.601
		C31.081,28.963,30.781,28.817,30.397,28.713z M33.221,28.096c0.47-0.021,0.597-0.314,0.583-0.721
		c-0.012-0.369-0.142-0.665-0.565-0.607c-0.38,0.052-0.649,0.258-0.612,0.717C32.657,27.871,32.826,28.085,33.221,28.096z
		 M31.817,34.439c-0.514-0.051-0.676,0.23-0.697,0.514c-0.029,0.396,0.226,0.72,0.622,0.724c0.306,0.003,0.677-0.172,0.654-0.579
		C32.374,34.697,32.077,34.489,31.817,34.439z M33.405,16.485c-0.009-0.377-0.199-0.592-0.596-0.584
		c-0.338,0.006-0.583,0.171-0.538,0.528c0.04,0.321,0.167,0.642,0.594,0.625C33.214,17.039,33.383,16.838,33.405,16.485z
		 M29.441,26.804c-0.063-0.416-0.361-0.484-0.708-0.47c-0.312,0.012-0.621,0.095-0.564,0.479c0.052,0.353,0.305,0.539,0.696,0.504
		C29.193,27.287,29.415,27.167,29.441,26.804z M32.03,32.623c-0.02-0.294-0.141-0.529-0.453-0.538
		c-0.435-0.012-0.524,0.303-0.528,0.661c-0.004,0.315,0.132,0.499,0.468,0.467C31.87,33.178,32.025,32.962,32.03,32.623z
		 M29.259,33.566c-0.025-0.344-0.326-0.438-0.604-0.491c-0.349-0.067-0.428,0.254-0.512,0.487c-0.137,0.379,0.287,0.677,0.414,0.649
		C28.833,34.149,29.144,33.955,29.259,33.566z M32.303,25.852c-0.205-0.189-0.313-0.504-0.665-0.49
		c-0.335,0.013-0.574,0.156-0.551,0.525c0.02,0.316,0.249,0.429,0.542,0.43C31.954,26.317,32.18,26.168,32.303,25.852z
		 M32.458,38.844c-0.45-0.164-0.414,0.207-0.475,0.428c-0.106,0.382,0.164,0.579,0.462,0.586c0.289,0.007,0.567-0.156,0.568-0.54
		C33.014,38.924,32.79,38.811,32.458,38.844z M31.909,23.725c0.21-0.144,0.687,0.103,0.648-0.376
		c-0.025-0.304-0.292-0.531-0.608-0.535c-0.312-0.004-0.59,0.182-0.575,0.523C31.386,23.61,31.56,23.831,31.909,23.725z
		 M34.301,35.728c-0.099-0.291-0.276-0.485-0.559-0.498c-0.371-0.017-0.511,0.235-0.517,0.568c-0.004,0.218-0.054,0.543,0.259,0.53
		C33.853,36.314,34.044,35.949,34.301,35.728z M33.001,30.364c-0.049-0.299-0.325-0.449-0.619-0.413
		c-0.248,0.03-0.497,0.245-0.47,0.541c0.03,0.33,0.321,0.361,0.594,0.368C32.806,30.868,33.026,30.786,33.001,30.364z
		 M30.563,20.814c-0.248,0.012-0.462,0.067-0.474,0.375c-0.015,0.378,0.241,0.422,0.524,0.41c0.272-0.012,0.573-0.06,0.546-0.411
		C31.133,20.859,30.838,20.819,30.563,20.814z M29.422,36.942c0.264-0.044,0.423-0.207,0.416-0.464
		c-0.009-0.306-0.194-0.482-0.512-0.456c-0.266,0.021-0.426,0.196-0.42,0.453C28.913,36.785,29.118,36.931,29.422,36.942z
		 M28.432,30.28c-0.235,0.032-0.472,0.108-0.468,0.383c0.004,0.285,0.231,0.494,0.483,0.521c0.32,0.035,0.418-0.233,0.42-0.517
		C28.869,30.378,28.698,30.274,28.432,30.28z M30.602,38.921c-0.075-0.258-0.25-0.382-0.509-0.34
		c-0.255,0.041-0.413,0.209-0.392,0.474c0.023,0.285,0.263,0.388,0.487,0.35C30.414,39.368,30.573,39.179,30.602,38.921z
		 M30.678,40.541c-0.256,0.234,0.069,0.758-0.441,0.823c0.352,0.506,0.707,0.174,0.879-0.101
		C31.355,40.881,30.945,40.729,30.678,40.541z M33.315,20.723c-0.077-0.228-0.233-0.415-0.456-0.44
		c-0.262-0.03-0.402,0.177-0.406,0.424c-0.004,0.246,0.126,0.455,0.392,0.438C33.078,21.131,33.223,20.938,33.315,20.723z"/>
	<path fill="#F2F1F1" d="M31.061,54.095c-0.139,0.705-0.74,1.055-1.21,1.479c-1.502,1.356-3.037,2.674-4.551,4.017
		c-0.166,0.148-0.282,0.357-0.406,0.548c-0.216,0.332-0.131,0.613,0.153,0.868c0.318,0.285,0.579,0.182,0.857-0.071
		c1.306-1.186,2.62-2.362,3.929-3.545c0.265-0.239,0.481-0.532,0.903-0.52c0.461,0.013,0.958-0.06,1.2,0.456
		c0.222,0.474-0.089,0.838-0.394,1.119c-1.392,1.286-2.801,2.553-4.219,3.81c-1.514,1.344-3.048,2.664-4.564,4.005
		c-0.783,0.693-1.565,1.389-2.314,2.118c-0.674,0.655-1.267,0.133-1.606-0.259c-0.656-0.757-1.524-1.216-2.238-1.879
		c-0.765-0.711-0.851-0.927-0.088-1.621c1.86-1.692,3.745-3.357,5.625-5.028c1.635-1.453,3.278-2.896,4.914-4.347
		c0.684-0.607,1.368-1.215,2.037-1.839c0.453-0.423,0.997-0.322,1.488-0.223C30.98,53.266,30.92,53.758,31.061,54.095z"/>
	<path fill="#F2F1F1" d="M30.057,47.896c-0.53,0.969-1.382,1.631-2.216,2.307c-0.442,0.358-0.904,0.622-0.394,1.322
		c0.409,0.562,0.088,1.082-0.361,1.554c-1.584,1.665-3.42,3.051-5.084,4.628c-1.565,1.483-3.224,2.867-4.839,4.297
		c-0.637,0.564-1.316,1.09-1.885,1.716c-0.467,0.514-0.846,0.409-1.217,0.001c-0.482-0.53-0.83-1.171-1.359-1.673
		c-0.31-0.295-0.133-0.553,0.157-0.816c2.741-2.482,5.46-4.988,8.202-7.469c2.474-2.238,4.969-4.452,7.454-6.677
		c0.33-0.295,0.702-0.478,1.156-0.459C29.799,47.051,29.928,47.474,30.057,47.896z"/>
	<path fill="#F2F1F1" d="M48.801,59.131c-0.113-0.84,0.136-1.386,0.967-1.716c0.727-0.29,1.952-3.112,1.807-3.882
		c-0.012-0.064-0.041-0.135-0.026-0.194c0.408-1.648-0.737-2.256-1.911-2.818c-0.848-0.406-1.581-1.072-2.7-0.777
		c-0.744,0.196-1.224-0.455-1.368-1.132c-0.151-0.709,0.094-1.354,0.782-1.735c0.711-0.394,1.555-0.244,1.836,0.347
		c0.484,1.015,1.434,1.287,2.199,1.852c0.891,0.658,1.641,0.966,2.837,0.174c0.996-0.66,2.493-0.545,3.627,0.264
		c1.01,0.72,1.424,1.841,1.334,3.012c-0.115,1.51-1.055,2.491-2.506,2.937c-0.369,0.113-0.765,0.193-1.148,0.191
		c-0.469-0.002-0.99-0.595-1.369-0.198c-0.532,0.558-0.871,1.301-1.291,1.965c-0.222,0.35,0.12,0.53,0.237,0.778
		c0.367,0.78,0.345,1.518-0.236,2.197c-0.591,0.691-1.385,0.781-2.159,0.54C48.859,60.669,48.659,59.934,48.801,59.131z"/>
	<path fill="#F2F1F1" d="M60.425,43.873c-1.475-0.461-3.726,0.617-4.35,2.086c-0.326,0.765-1.388,1.376-2.152,1.237
		c-1.024-0.187-1.394-0.683-1.395-1.871c-0.001-1.664,0.206-2.014,1.86-1.803c1.773,0.226,2.855-1.128,4.339-1.497
		c0.167-0.041,0.225-0.204,0.253-0.382c0.186-1.189,0.836-1.952,1.936-2.029c0.937-0.066,1.689,0.382,2.142,1.26
		c0.499,0.966,0.401,1.652-0.453,2.56c-0.286,0.304-0.486,0.607-0.423,1.036c-0.301,0.857-0.363,1.711,0.037,2.558
		c0.82,0.487,1.346,1.57,1.108,2.379c-0.264,0.9-0.949,1.278-1.836,1.36c-0.796,0.074-1.442-0.211-1.798-0.923
		c-0.371-0.744-0.111-2.027,0.425-2.475c0.149-0.125,0.318-0.227,0.477-0.34c0.412-0.968,0.176-1.97,0.137-2.96
		C60.729,43.999,60.532,43.938,60.425,43.873z"/>
	<path fill="#A1A0A0" d="M25.921,65.71c0.368,0.892,1.172,1.462,1.941,1.759c2.308,0.891,4.579,1.92,7.023,2.426
		c0.248,0.051,0.481,0.186,0.461,0.433c-0.09,1.108,0.742,1.126,1.418,1.105c1.12-0.034,2.207,0.262,3.32,0.223
		c0.511-0.018,0.986,0.149,0.962,0.719c-0.022,0.509-0.553,0.686-0.962,0.635c-2.162-0.27-4.352-0.229-6.502-0.667
		c-3.693-0.751-7.108-2.144-10.238-4.239C24.164,67.266,24.942,66.38,25.921,65.71z"/>
	<path fill="#F2F1F1" d="M54.433,36.571c1.34,0.391,2.31-0.701,3.456-1.253c0.292-0.141,0.6-0.427,0.549-0.86
		c-0.113-0.962,0.499-1.327,1.275-1.577c0.753-0.243,1.454-0.191,2.074,0.332c1.047,0.883,1.216,1.619,0.623,2.635
		c-0.534,0.916-1.81,1.451-2.776,0.993c-0.757-0.359-1.359-0.147-1.922,0.231c-0.789,0.53-1.707,0.854-1.786,2.173
		c-0.058,0.969-1.541,1.52-2.54,1.257c-0.806-0.213-1.359-1.28-1.252-2.419C52.227,37.115,52.921,36.631,54.433,36.571z"/>
	<path fill="#F2F1F1" d="M39.244,54.117c1.703,0,3.023,1.193,3.037,2.746c0.015,1.616-1.416,3.1-3.026,3.141
		c-1.59,0.04-2.855-1.251-2.876-2.935C36.355,55.127,37.335,54.117,39.244,54.117z"/>
	<path fill="#F2F1F1" d="M41.893,65.102c-0.026,0.02-0.07,0.037-0.075,0.062c-0.24,1.17-0.785,2.086-2.046,2.354
		c-1.43,0.304-2.273-0.542-2.998-1.59c-0.003-0.41-0.006-0.82-0.01-1.23c0.262-0.439,0.523-0.879,0.785-1.318
		c0.349-0.165,0.561-0.56,0.991-0.591C40.649,62.449,41.217,62.841,41.893,65.102z"/>
	<path fill="#DFDFDF" d="M8.195,49.777c0.632,1.801,0.984,3.693,1.771,5.444c0.293,0.653,0.553,1.32,0.847,1.973
		c0.255,0.567,0.775,1.093,0.049,1.714c-0.218,0.187,0.134,0.476,0.088,0.737c-1.312-1.31-1.982-3.006-2.754-4.635
		c-0.317-0.67-0.534-1.388-0.796-2.084c0-0.066,0-0.133-0.001-0.2c-0.218-0.215-0.483-0.406-0.386-0.778
		c0.263-0.007,0.55,0.007,0.575-0.361C7.632,50.929,8.07,50.406,8.195,49.777z"/>
	<path fill="#A1A0A0" d="M37.369,45.877c0.035,0.426-0.283,0.641-0.543,0.879c-1.502,1.378-3.007,2.752-4.519,4.119
		c-0.307,0.278-0.657,0.464-1.038,0.112c-0.406-0.375-0.184-0.748,0.099-1.02c1.598-1.533,3.217-3.044,4.834-4.557
		c0.227-0.212,0.501-0.308,0.811-0.167C37.286,45.367,37.389,45.588,37.369,45.877z"/>
	<path fill="#CBCACA" d="M36.765,64.698c0.003,0.41,0.006,0.82,0.01,1.23c-2.015-0.195-3.864-0.936-5.69-1.744
		c-0.748-0.331-1.484-0.688-2.225-1.034c0.592-0.942,1.218-1.045,2.263-0.477C32.881,63.626,34.725,64.472,36.765,64.698z"/>
	<path fill="#F2F1F1" d="M44.517,54.901c-0.885-0.023-1.567-0.838-1.583-1.896c-0.012-0.741,0.866-1.445,1.805-1.447
		c0.804-0.001,1.504,0.718,1.48,1.523C46.19,54.065,45.387,54.924,44.517,54.901z"/>
	<path fill="#F2F1F1" d="M45.852,61.014c1.017,0.003,1.755,0.6,1.743,1.412c-0.012,0.825-0.864,1.656-1.729,1.685
		c-0.669,0.023-1.558-0.681-1.546-1.224C44.355,61.285,44.579,61.011,45.852,61.014z"/>
	<path fill="#CBCACA" d="M35.976,62.984c-0.166,0.213-0.398,0.246-0.62,0.159c-1.187-0.465-2.349-0.99-3.454-1.628
		c-0.367-0.212-0.589-0.555-0.375-0.992c0.192-0.392,0.536-0.623,0.968-0.428c1.186,0.534,2.357,1.102,3.525,1.673
		c0.087,0.042,0.106,0.222,0.157,0.339C36.209,62.422,36.113,62.708,35.976,62.984z"/>
	<path fill="#D8D8D8" d="M7.583,45.259c0.073,0.915,0.146,1.831,0.219,2.746c-0.444,0.71-1.578,1.044-1.199,2.201
		c-0.459-0.142-0.332-0.595-0.415-0.894c-0.242-0.879-0.569-1.748-0.565-2.681c0.11-0.052,0.312-0.097,0.316-0.157
		C6.017,45.421,6.905,45.485,7.583,45.259z"/>
	<path fill="#F2F1F1" d="M53.09,23.409c0.022,0.632-0.668,1.288-1.354,1.286c-0.669-0.002-1.35-0.643-1.37-1.29
		c-0.023-0.727,0.659-1.334,1.548-1.375C52.589,21.999,53.06,22.551,53.09,23.409z"/>
	<path fill="#D8D8D8" d="M6.603,50.206c-0.379-1.158,0.755-1.492,1.199-2.201c0.243,0.566,0.391,1.153,0.393,1.772
		c-0.125,0.629-0.563,1.152-0.608,1.811c-0.025,0.368-0.312,0.354-0.575,0.361c-0.017-0.053-0.028-0.106-0.035-0.161
		c0.005-0.085,0.009-0.171,0.014-0.256C6.907,51.076,6.406,50.743,6.603,50.206z"/>
	<path fill="#A1A0A0" d="M35.918,52.783c0.014,0.52-0.899,1.459-1.413,1.427c-0.469-0.029-0.683-0.329-0.694-0.778
		c-0.011-0.456,0.878-1.362,1.343-1.383C35.536,52.033,35.908,52.39,35.918,52.783z"/>
	<path fill="#A1A0A0" d="M39.439,45.256c-0.512-0.083-0.84-0.361-0.837-0.892c0.004-0.577,0.331-0.874,0.92-0.889
		c0.548-0.014,0.763,0.316,0.775,0.782C40.311,44.816,39.998,45.15,39.439,45.256z"/>
	<path fill="#A1A0A0" d="M35.177,57.963c-0.175,0.364-0.277,0.859-0.848,0.883c-0.551,0.023-0.863-0.306-0.891-0.831
		c-0.026-0.491,0.275-0.799,0.755-0.872C34.772,57.055,34.998,57.461,35.177,57.963z"/>
	<path fill="#A1A0A0" d="M35.976,62.984c0.138-0.276,0.234-0.562,0.201-0.877c0.823,0.107,1.668,0.136,2.364,0.682
		c-0.429,0.031-0.641,0.426-0.991,0.591C37.102,62.944,36.517,63.049,35.976,62.984z"/>
	<path fill="#A1A0A0" d="M56.505,23.865c-0.051,0.523-0.454,0.619-0.762,0.691c-0.35,0.082-0.467-0.229-0.505-0.549
		c-0.052-0.439,0.27-0.579,0.57-0.636C56.199,23.296,56.308,23.687,56.505,23.865z"/>
	<path fill="#F2F1F1" d="M48.594,73.646c0.284-0.451,0.737-0.42,1.182-0.414C49.467,73.611,49.028,73.623,48.594,73.646z"/>
	<path fill="#CBCACA" d="M5.452,45.662c0.311,0.279,0.126,0.646,0.175,0.972C5.3,46.358,5.461,45.995,5.452,45.662z"/>
	<path fill="#F2F1F1" d="M64.158,63.974c-0.012-0.315,0.136-0.512,0.439-0.595C64.538,63.642,64.434,63.872,64.158,63.974z"/>
	<path fill="#F2F1F1" d="M49.767,73.238c0.14-0.244,0.377-0.201,0.6-0.202C50.227,73.282,49.984,73.22,49.767,73.238z"/>
	<path fill="#F2F1F1" d="M62.386,65.756c-0.184-0.307,0.103-0.167,0.198-0.208C62.519,65.617,62.452,65.686,62.386,65.756z"/>
	<path fill="#F2F1F1" d="M50.359,73.041c0.084-0.174,0.241-0.2,0.41-0.204C50.679,72.998,50.526,73.032,50.359,73.041z"/>
	<path fill="#D8D8D8" d="M7.399,52.726c0,0.067,0.001,0.133,0.001,0.2C7.236,52.86,7.279,52.793,7.399,52.726z"/>
	<path fill="#DFDFDF" d="M6.991,51.532c-0.004,0.085-0.009,0.17-0.014,0.256C6.843,51.695,6.848,51.609,6.991,51.532z"/>
	<path fill="#D8D8D8" d="M63.959,64.171c0.067-0.067,0.133-0.133,0.2-0.2C64.093,64.038,64.026,64.105,63.959,64.171z"/>
	<path fill="#D8D8D8" d="M63.763,64.368c0.066-0.066,0.133-0.133,0.199-0.199C63.896,64.235,63.829,64.301,63.763,64.368z"/>
	<path fill="#D8D8D8" d="M63.171,64.959c0.066-0.066,0.133-0.133,0.199-0.199C63.304,64.826,63.238,64.893,63.171,64.959z"/>
	<path fill="#D8D8D8" d="M62.974,65.157c0.067-0.067,0.133-0.133,0.2-0.2C63.107,65.024,63.04,65.09,62.974,65.157z"/>
	<path fill="#D8D8D8" d="M62.776,65.355c0.067-0.067,0.134-0.134,0.201-0.201C62.91,65.22,62.843,65.287,62.776,65.355z"/>
	<path fill="#D8D8D8" d="M62.578,65.552c0.068-0.068,0.135-0.135,0.203-0.203C62.713,65.417,62.646,65.485,62.578,65.552z"/>
	<path fill="#D8D8D8" d="M63.368,64.762c0.066-0.066,0.133-0.133,0.199-0.199C63.501,64.629,63.435,64.696,63.368,64.762z"/>
	<path fill="#D8D8D8" d="M63.566,64.565c0.066-0.066,0.132-0.132,0.199-0.199C63.698,64.432,63.632,64.498,63.566,64.565z"/>
	<path fill="#DFDFDF" d="M11.931,51.16c0.391,1.491,0.945,2.929,1.599,4.314c0.403,0.854-0.13,1.224-0.645,1.453
		c-0.622,0.276-0.641-0.422-0.842-0.797c-0.714-1.333-1.164-2.771-1.681-4.183C10.909,51.731,11.127,50.862,11.931,51.16z"/>
	<path fill="#DFDFDF" d="M14.706,49.781c0.66,1.171,1.038,2.46,1.511,3.707c0.264,0.698-0.411,0.911-0.836,1.129
		c-0.517,0.266-0.685-0.24-0.813-0.593c-0.389-1.073-0.902-2.107-1.059-3.256C14.129,50.708,13.802,49.498,14.706,49.781z"/>
	<path fill="#DFDFDF" d="M22.579,44.46c0.332,0.735,0.671,1.466,0.995,2.205c0.258,0.59-0.196,1.363-1.116,1.721
		c-0.651,0.253-0.522-0.482-0.742-0.759c-0.172-0.216-0.217-0.532-0.318-0.804c0.208-0.03,0.405-0.095,0.295-0.359
		c-0.175-0.417-0.035-0.702,0.353-0.847C22.626,45.401,21.897,44.61,22.579,44.46z"/>
	<path fill="#DFDFDF" d="M19.816,47.023c0.296,0.787,0.586,1.577,0.891,2.361c0.108,0.277,0.072,0.485-0.148,0.704
		c-0.768,0.762-0.979,0.725-1.306-0.311c-0.198-0.627-0.392-1.248-0.818-1.766C19.234,48.157,19.247,47.2,19.816,47.023z"/>
	<path fill="#DFDFDF" d="M17.447,48.992c0.255,0.834,0.365,1.706,0.732,2.513c0.145,0.318,0.172,0.762-0.234,0.944
		c-0.514,0.231-0.61-0.279-0.705-0.572c-0.269-0.825-0.783-1.576-0.775-2.486C16.718,49.075,17.063,48.984,17.447,48.992z"/>
	<path fill="#DFDFDF" d="M24.543,42.884c0.348,0.698,0.683,1.402,1.049,2.091c0.215,0.406,0.097,0.719-0.252,0.916
		c-0.437,0.246-0.482-0.217-0.579-0.435c-0.314-0.704-0.879-1.321-0.808-2.169C24.06,43.022,24.256,42.886,24.543,42.884z"/>
</g>
<g>
	<path fill="#F6F6F6" d="M105.928,36.073l-6.543,0.41c-0.092-3.763-1.56-5.645-4.404-5.645c-3.262,0-4.893,2.897-4.893,8.691
		c0,3.347,0.443,5.615,1.331,6.807s2.127,1.787,3.719,1.787c2.583,0,4.162-1.68,4.736-5.039l6.055,0.371
		c-0.391,3.19-1.579,5.615-3.564,7.275c-1.986,1.66-4.417,2.49-7.295,2.49c-3.529,0-6.396-1.218-8.604-3.652
		s-3.311-5.801-3.311-10.098c0-4.023,1.067-7.317,3.203-9.883c2.135-2.565,5.052-3.848,8.75-3.848
		C101.514,25.741,105.121,29.186,105.928,36.073z"/>
	<path fill="#F6F6F6" d="M119.532,53.222c-3.591,0-6.368-1.348-8.333-4.043c-1.964-2.695-2.946-5.957-2.946-9.785
		c0-3.893,0.995-7.142,2.985-9.746c1.991-2.604,4.827-3.906,8.509-3.906c3.721,0,6.527,1.39,8.42,4.17
		c1.893,2.78,2.839,5.96,2.839,9.541c0,3.867-0.976,7.129-2.927,9.785C126.127,51.894,123.278,53.222,119.532,53.222z
		 M119.707,30.839c-3.274,0-4.912,2.878-4.912,8.633c0,5.769,1.637,8.652,4.912,8.652c3.171,0,4.756-2.878,4.756-8.633
		C124.463,33.723,122.878,30.839,119.707,30.839z"/>
	<path fill="#F6F6F6" d="M156.593,36.073l-6.543,0.41c-0.092-3.763-1.56-5.645-4.403-5.645c-3.263,0-4.894,2.897-4.894,8.691
		c0,3.347,0.443,5.615,1.33,6.807c0.888,1.191,2.127,1.787,3.719,1.787c2.583,0,4.162-1.68,4.736-5.039l6.055,0.371
		c-0.391,3.19-1.579,5.615-3.564,7.275s-4.417,2.49-7.295,2.49c-3.528,0-6.396-1.218-8.604-3.652s-3.311-5.801-3.311-10.098
		c0-4.023,1.067-7.317,3.203-9.883c2.136-2.565,5.052-3.848,8.75-3.848C152.179,25.741,155.785,29.186,156.593,36.073z"/>
	<path fill="#F6F6F6" d="M181.925,52.812h-6.432l-1.631-4.577c-1.628,3.325-3.861,4.987-6.701,4.987c-2.5,0-4.522-1.013-6.065-3.037
		c-1.544-2.024-2.315-4.489-2.315-7.393c0-3.008,0.824-5.446,2.472-7.314c1.648-1.868,3.814-2.803,6.498-2.803
		c2.761,0,4.878,1.366,6.351,4.097l1.152-3.687h6.164l-3.823,9.326L181.925,52.812z M172.647,42.802
		c-0.989-2.99-1.787-4.774-2.393-5.353c-0.605-0.579-1.24-0.868-1.904-0.868c-0.977,0-1.794,0.563-2.451,1.687
		s-0.986,2.675-0.986,4.651c0,1.781,0.325,3.293,0.977,4.534s1.478,1.862,2.48,1.862c1.106,0,1.973-0.631,2.598-1.892
		S172.152,44.622,172.647,42.802z"/>
	<path fill="#F6F6F6" d="M184.991,26.151h8.137c3.317,0,5.79,0.459,7.416,1.377s3.083,2.37,4.371,4.355
		c1.287,1.986,1.932,4.496,1.932,7.529c0,3.815-1.125,7.002-3.376,9.561s-5.354,3.838-9.308,3.838h-9.172V26.151z M191.124,31.054
		v16.738h2.572c2.274,0,3.963-0.85,5.067-2.549s1.657-3.694,1.657-5.986c0-1.614-0.315-3.108-0.945-4.482
		c-0.63-1.374-1.413-2.337-2.349-2.891c-0.936-0.553-2.06-0.83-3.372-0.83H191.124z"/>
	<path fill="#F6F6F6" d="M223.11,26.151l8.346,26.66h-6.712l-1.643-5.488h-8.62l-1.671,5.488h-5.476l8.545-26.66H223.11z
		 M215.979,42.401h5.649l-2.8-9.355L215.979,42.401z"/>
</g>
<g>
	<g>
		<path fill="#F6F6F6" d="M278.138,38.013c-0.499,0-0.896,0.213-1.189,0.637s-0.44,1.025-0.44,1.805v1.979
			c0,0.725,0.151,1.271,0.456,1.641c0.304,0.369,0.668,0.554,1.092,0.554c0.506,0,0.923-0.224,1.251-0.672
			c0.328-0.447,0.492-1.317,0.492-2.61c0-1.47-0.169-2.393-0.508-2.769C278.953,38.202,278.568,38.013,278.138,38.013z"/>
		<path fill="#F6F6F6" d="M266.776,37.962c-1.148,0-1.791,0.711-1.928,2.133h3.682C268.435,38.673,267.85,37.962,266.776,37.962z"/>
		<path fill="#F6F6F6" d="M282.47,26.231h-35.878c-3.33,0-6.03,2.265-6.03,5.059v16.709c0,2.794,2.7,5.059,6.03,5.059h35.878
			c3.33,0,6.03-2.265,6.03-5.059V31.29C288.5,28.496,285.8,26.231,282.47,26.231z M257.863,46.535h-2.689l-1.641-6.666l-1.636,6.666
			h-2.552l-3.21-10.357h3.187l1.688,6.328l1.586-6.328h2.764l1.516,6.369l1.762-6.369h2.355L257.863,46.535z M265.438,44.023
			c0.393,0.376,0.863,0.563,1.41,0.563c1.019,0,1.63-0.544,1.835-1.63l2.769,0.205c-0.772,2.393-2.341,3.588-4.706,3.588
			c-1.032,0-1.909-0.206-2.63-0.62c-0.722-0.413-1.316-1.017-1.784-1.81c-0.469-0.793-0.703-1.743-0.703-2.851
			c0-1.647,0.47-2.977,1.41-3.989c0.939-1.011,2.148-1.517,3.625-1.517c1.333,0,2.477,0.47,3.43,1.41
			c0.954,0.94,1.431,2.439,1.431,4.497h-6.665c-0.007,0.186-0.011,0.346-0.011,0.482C264.849,43.09,265.045,43.647,265.438,44.023z
			 M281.861,45.264c-0.711,0.991-1.735,1.486-3.074,1.486c-0.697,0-1.264-0.119-1.701-0.358s-0.878-0.721-1.322-1.446
			c-0.192,0.199-0.42,0.729-0.682,1.59h-1.63V32.538h3.056v4.942c0.547-1.011,1.401-1.517,2.563-1.517
			c1.189,0,2.129,0.48,2.819,1.441c0.69,0.96,1.036,2.278,1.036,3.953C282.927,42.971,282.571,44.272,281.861,45.264z"/>
	</g>
</g>
</svg>
